<mxfile host="app.diagrams.net" modified="2023-04-14T16:34:27.188Z" agent="Mozilla/5.0 (Windows NT 10.0; Win64; x64) AppleWebKit/537.36 (KHTML, like Gecko) Chrome/112.0.0.0 Safari/537.36" etag="1HVDLhOeyPLyIhazvYvM" version="21.1.7" type="github">
  <diagram name="Page-1" id="liNa4RBfBj2x-GunZdGX">
    <mxGraphModel dx="3000" dy="1637" grid="1" gridSize="10" guides="1" tooltips="1" connect="1" arrows="1" fold="1" page="1" pageScale="1" pageWidth="850" pageHeight="1100" math="0" shadow="0">
      <root>
        <mxCell id="0" />
        <mxCell id="1" parent="0" />
        <mxCell id="XnpE61P32CPBwXyup0Vq-1" value="" style="ellipse;html=1;shape=startState;fillColor=#000000;strokeColor=#ff0000;" vertex="1" parent="1">
          <mxGeometry x="120" y="90" width="50" height="50" as="geometry" />
        </mxCell>
        <mxCell id="XnpE61P32CPBwXyup0Vq-2" value="" style="edgeStyle=orthogonalEdgeStyle;html=1;verticalAlign=bottom;endArrow=open;endSize=8;strokeColor=#ff0000;rounded=0;entryX=0.5;entryY=0;entryDx=0;entryDy=0;" edge="1" source="XnpE61P32CPBwXyup0Vq-1" parent="1" target="XnpE61P32CPBwXyup0Vq-3">
          <mxGeometry relative="1" as="geometry">
            <mxPoint x="95" y="660" as="targetPoint" />
            <Array as="points" />
          </mxGeometry>
        </mxCell>
        <mxCell id="XnpE61P32CPBwXyup0Vq-5" style="edgeStyle=orthogonalEdgeStyle;rounded=0;orthogonalLoop=1;jettySize=auto;html=1;exitX=0.5;exitY=1;exitDx=0;exitDy=0;entryX=0.5;entryY=0;entryDx=0;entryDy=0;" edge="1" parent="1" source="XnpE61P32CPBwXyup0Vq-3" target="XnpE61P32CPBwXyup0Vq-4">
          <mxGeometry relative="1" as="geometry" />
        </mxCell>
        <mxCell id="XnpE61P32CPBwXyup0Vq-3" value="&lt;font style=&quot;font-size: 14px;&quot;&gt;Login&lt;/font&gt;" style="rounded=1;whiteSpace=wrap;html=1;" vertex="1" parent="1">
          <mxGeometry x="96.25" y="200" width="97.5" height="40" as="geometry" />
        </mxCell>
        <mxCell id="XnpE61P32CPBwXyup0Vq-9" style="edgeStyle=orthogonalEdgeStyle;rounded=0;orthogonalLoop=1;jettySize=auto;html=1;exitX=0.5;exitY=1;exitDx=0;exitDy=0;entryX=0.5;entryY=0;entryDx=0;entryDy=0;" edge="1" parent="1" source="XnpE61P32CPBwXyup0Vq-4" target="XnpE61P32CPBwXyup0Vq-7">
          <mxGeometry relative="1" as="geometry" />
        </mxCell>
        <mxCell id="XnpE61P32CPBwXyup0Vq-10" style="edgeStyle=orthogonalEdgeStyle;rounded=0;orthogonalLoop=1;jettySize=auto;html=1;exitX=1;exitY=0.5;exitDx=0;exitDy=0;entryX=0;entryY=0.5;entryDx=0;entryDy=0;" edge="1" parent="1" source="XnpE61P32CPBwXyup0Vq-4" target="XnpE61P32CPBwXyup0Vq-8">
          <mxGeometry relative="1" as="geometry" />
        </mxCell>
        <mxCell id="XnpE61P32CPBwXyup0Vq-4" value="Valid user?" style="rhombus;whiteSpace=wrap;html=1;" vertex="1" parent="1">
          <mxGeometry x="105" y="280" width="80" height="80" as="geometry" />
        </mxCell>
        <mxCell id="XnpE61P32CPBwXyup0Vq-12" style="edgeStyle=orthogonalEdgeStyle;rounded=0;orthogonalLoop=1;jettySize=auto;html=1;exitX=0.5;exitY=1;exitDx=0;exitDy=0;entryX=0;entryY=0.5;entryDx=0;entryDy=0;" edge="1" parent="1" source="XnpE61P32CPBwXyup0Vq-7" target="XnpE61P32CPBwXyup0Vq-3">
          <mxGeometry relative="1" as="geometry" />
        </mxCell>
        <mxCell id="XnpE61P32CPBwXyup0Vq-7" value="&lt;font style=&quot;font-size: 14px;&quot;&gt;New User Registration&lt;/font&gt;" style="rounded=1;whiteSpace=wrap;html=1;" vertex="1" parent="1">
          <mxGeometry x="96.25" y="400" width="97.5" height="40" as="geometry" />
        </mxCell>
        <mxCell id="XnpE61P32CPBwXyup0Vq-14" style="edgeStyle=orthogonalEdgeStyle;rounded=0;orthogonalLoop=1;jettySize=auto;html=1;exitX=0.25;exitY=1;exitDx=0;exitDy=0;" edge="1" parent="1" source="XnpE61P32CPBwXyup0Vq-8" target="XnpE61P32CPBwXyup0Vq-13">
          <mxGeometry relative="1" as="geometry" />
        </mxCell>
        <mxCell id="XnpE61P32CPBwXyup0Vq-23" style="edgeStyle=orthogonalEdgeStyle;rounded=0;orthogonalLoop=1;jettySize=auto;html=1;exitX=0.5;exitY=1;exitDx=0;exitDy=0;entryX=1;entryY=0.5;entryDx=0;entryDy=0;" edge="1" parent="1" source="XnpE61P32CPBwXyup0Vq-8" target="XnpE61P32CPBwXyup0Vq-15">
          <mxGeometry relative="1" as="geometry" />
        </mxCell>
        <mxCell id="XnpE61P32CPBwXyup0Vq-25" style="edgeStyle=orthogonalEdgeStyle;rounded=0;orthogonalLoop=1;jettySize=auto;html=1;exitX=0.75;exitY=1;exitDx=0;exitDy=0;entryX=0.5;entryY=0;entryDx=0;entryDy=0;" edge="1" parent="1" source="XnpE61P32CPBwXyup0Vq-8" target="XnpE61P32CPBwXyup0Vq-16">
          <mxGeometry relative="1" as="geometry">
            <mxPoint x="520" y="430" as="targetPoint" />
          </mxGeometry>
        </mxCell>
        <mxCell id="XnpE61P32CPBwXyup0Vq-26" style="edgeStyle=orthogonalEdgeStyle;rounded=0;orthogonalLoop=1;jettySize=auto;html=1;entryX=0.5;entryY=0;entryDx=0;entryDy=0;exitX=1;exitY=0.75;exitDx=0;exitDy=0;" edge="1" parent="1" source="XnpE61P32CPBwXyup0Vq-8" target="XnpE61P32CPBwXyup0Vq-17">
          <mxGeometry relative="1" as="geometry">
            <mxPoint x="470" y="330" as="sourcePoint" />
          </mxGeometry>
        </mxCell>
        <mxCell id="XnpE61P32CPBwXyup0Vq-29" style="edgeStyle=orthogonalEdgeStyle;rounded=0;orthogonalLoop=1;jettySize=auto;html=1;exitX=0.5;exitY=0;exitDx=0;exitDy=0;entryX=0.5;entryY=0;entryDx=0;entryDy=0;" edge="1" parent="1" source="XnpE61P32CPBwXyup0Vq-8" target="XnpE61P32CPBwXyup0Vq-18">
          <mxGeometry relative="1" as="geometry" />
        </mxCell>
        <mxCell id="XnpE61P32CPBwXyup0Vq-8" value="&lt;span style=&quot;font-size: 14px;&quot;&gt;Transaction Interface&lt;/span&gt;" style="rounded=1;whiteSpace=wrap;html=1;" vertex="1" parent="1">
          <mxGeometry x="376" y="300" width="97.5" height="40" as="geometry" />
        </mxCell>
        <mxCell id="XnpE61P32CPBwXyup0Vq-20" style="edgeStyle=orthogonalEdgeStyle;rounded=0;orthogonalLoop=1;jettySize=auto;html=1;exitX=0.5;exitY=1;exitDx=0;exitDy=0;entryX=0.25;entryY=0;entryDx=0;entryDy=0;" edge="1" parent="1" source="XnpE61P32CPBwXyup0Vq-13" target="XnpE61P32CPBwXyup0Vq-19">
          <mxGeometry relative="1" as="geometry" />
        </mxCell>
        <mxCell id="XnpE61P32CPBwXyup0Vq-13" value="&lt;span style=&quot;font-size: 14px;&quot;&gt;Withdraw Money&lt;/span&gt;" style="rounded=1;whiteSpace=wrap;html=1;" vertex="1" parent="1">
          <mxGeometry x="193.75" y="480" width="97.5" height="40" as="geometry" />
        </mxCell>
        <mxCell id="XnpE61P32CPBwXyup0Vq-21" style="edgeStyle=orthogonalEdgeStyle;rounded=0;orthogonalLoop=1;jettySize=auto;html=1;exitX=0.5;exitY=1;exitDx=0;exitDy=0;entryX=0.5;entryY=0;entryDx=0;entryDy=0;" edge="1" parent="1" source="XnpE61P32CPBwXyup0Vq-15" target="XnpE61P32CPBwXyup0Vq-19">
          <mxGeometry relative="1" as="geometry" />
        </mxCell>
        <mxCell id="XnpE61P32CPBwXyup0Vq-15" value="&lt;span style=&quot;font-size: 14px;&quot;&gt;Deposit&amp;nbsp;Money&lt;/span&gt;" style="rounded=1;whiteSpace=wrap;html=1;" vertex="1" parent="1">
          <mxGeometry x="328" y="480" width="97.5" height="40" as="geometry" />
        </mxCell>
        <mxCell id="XnpE61P32CPBwXyup0Vq-16" value="&lt;span style=&quot;font-size: 14px;&quot;&gt;View Account info&lt;/span&gt;" style="rounded=1;whiteSpace=wrap;html=1;" vertex="1" parent="1">
          <mxGeometry x="460" y="480" width="97.5" height="40" as="geometry" />
        </mxCell>
        <mxCell id="XnpE61P32CPBwXyup0Vq-22" style="edgeStyle=orthogonalEdgeStyle;rounded=0;orthogonalLoop=1;jettySize=auto;html=1;exitX=0.5;exitY=1;exitDx=0;exitDy=0;entryX=1;entryY=0.5;entryDx=0;entryDy=0;" edge="1" parent="1" source="XnpE61P32CPBwXyup0Vq-17" target="XnpE61P32CPBwXyup0Vq-19">
          <mxGeometry relative="1" as="geometry" />
        </mxCell>
        <mxCell id="XnpE61P32CPBwXyup0Vq-17" value="&lt;span style=&quot;font-size: 14px;&quot;&gt;Check Balance&lt;/span&gt;" style="rounded=1;whiteSpace=wrap;html=1;" vertex="1" parent="1">
          <mxGeometry x="590" y="480" width="97.5" height="40" as="geometry" />
        </mxCell>
        <mxCell id="XnpE61P32CPBwXyup0Vq-31" style="edgeStyle=orthogonalEdgeStyle;rounded=0;orthogonalLoop=1;jettySize=auto;html=1;exitX=0.5;exitY=1;exitDx=0;exitDy=0;entryX=0.5;entryY=0;entryDx=0;entryDy=0;" edge="1" parent="1" source="XnpE61P32CPBwXyup0Vq-18" target="XnpE61P32CPBwXyup0Vq-30">
          <mxGeometry relative="1" as="geometry" />
        </mxCell>
        <mxCell id="XnpE61P32CPBwXyup0Vq-18" value="&lt;span style=&quot;font-size: 14px;&quot;&gt;Logout&lt;/span&gt;" style="rounded=1;whiteSpace=wrap;html=1;" vertex="1" parent="1">
          <mxGeometry x="720" y="480" width="97.5" height="40" as="geometry" />
        </mxCell>
        <mxCell id="XnpE61P32CPBwXyup0Vq-19" value="&lt;span style=&quot;font-size: 14px;&quot;&gt;Generate Statement&lt;/span&gt;" style="rounded=1;whiteSpace=wrap;html=1;" vertex="1" parent="1">
          <mxGeometry x="270" y="640" width="97.5" height="40" as="geometry" />
        </mxCell>
        <mxCell id="XnpE61P32CPBwXyup0Vq-28" value="" style="endArrow=classic;html=1;rounded=0;exitX=0.5;exitY=1;exitDx=0;exitDy=0;entryX=1;entryY=0.25;entryDx=0;entryDy=0;" edge="1" parent="1" source="XnpE61P32CPBwXyup0Vq-19" target="XnpE61P32CPBwXyup0Vq-8">
          <mxGeometry width="50" height="50" relative="1" as="geometry">
            <mxPoint x="660" y="640" as="sourcePoint" />
            <mxPoint x="540" y="170" as="targetPoint" />
            <Array as="points">
              <mxPoint x="319" y="830" />
              <mxPoint x="700" y="830" />
              <mxPoint x="700" y="310" />
            </Array>
          </mxGeometry>
        </mxCell>
        <mxCell id="XnpE61P32CPBwXyup0Vq-30" value="" style="ellipse;html=1;shape=endState;fillColor=#000000;strokeColor=#ff0000;" vertex="1" parent="1">
          <mxGeometry x="748.75" y="620" width="40" height="40" as="geometry" />
        </mxCell>
        <mxCell id="XnpE61P32CPBwXyup0Vq-32" value="&lt;font style=&quot;font-size: 24px;&quot;&gt;Bank Management System&lt;/font&gt;" style="text;html=1;align=center;verticalAlign=middle;resizable=0;points=[];autosize=1;strokeColor=none;fillColor=none;" vertex="1" parent="1">
          <mxGeometry x="270" y="40" width="310" height="40" as="geometry" />
        </mxCell>
      </root>
    </mxGraphModel>
  </diagram>
</mxfile>
